<svg xmlns="http://www.w3.org/2000/svg" viewBox="0 0 120 53"><defs><style>.cls-1{fill:#fff;}.cls-2{fill:#3b2401;}.cls-3,.cls-4{fill:none;stroke:#fff;stroke-miterlimit:10;stroke-width:0.87px;}.cls-3{stroke-linecap:round;}</style></defs><g id="Capa_82" data-name="Capa 82"><path class="cls-1" d="M34,18.88a.61.61,0,0,1,.61-.6h9.07a.59.59,0,0,1,.6.6.6.6,0,0,1-.6.63H35.25v7h7.38a.62.62,0,0,1,.6.63.6.6,0,0,1-.6.6H35.25v7h8.44a.62.62,0,0,1,0,1.23H34.57a.61.61,0,0,1-.56-.6Z"/><path class="cls-1" d="M47.54,29.71a6.21,6.21,0,0,1,6.35-6.14,6.33,6.33,0,0,1,3.93,1.36.57.57,0,0,1,.08.83.63.63,0,0,1-.84.1,5,5,0,1,0-3.17,8.84,5.19,5.19,0,0,0,3.17-1.08.63.63,0,0,1,.84.1.6.6,0,0,1-.13.88,6.34,6.34,0,0,1-3.88,1.31A6.23,6.23,0,0,1,47.54,29.71Z"/><path class="cls-1" d="M67.7,23.57a6.18,6.18,0,1,1-5.85,6.17A6,6,0,0,1,67.7,23.57Zm0,11.13a5,5,0,1,0-4.64-5A4.83,4.83,0,0,0,67.7,34.7Z"/><path class="cls-2" d="M78.17,30V18.88a.62.62,0,0,1,1.24,0V26a5.87,5.87,0,0,1,4.74-2.42,6.17,6.17,0,0,1,0,12.34,5.87,5.87,0,0,1-4.74-2.39v1.79a.62.62,0,0,1-1.24,0Zm1.24-.26a4.86,4.86,0,1,0,0-.2Z"/><path class="cls-2" d="M94.83,20.14a.6.6,0,0,1,.6-.6.62.62,0,0,1,.63.6v.58a.64.64,0,0,1-.63.65.63.63,0,0,1-.6-.65Zm0,4a.59.59,0,0,1,.6-.6.6.6,0,0,1,.63.6V35.31a.62.62,0,0,1-.63.6.61.61,0,0,1-.6-.6Z"/><path class="cls-2" d="M101,29.71a6.21,6.21,0,0,1,6.35-6.14,6.35,6.35,0,0,1,3.93,1.36.56.56,0,0,1,.07.83.62.62,0,0,1-.83.1,5,5,0,1,0-3.17,8.84,5.19,5.19,0,0,0,3.17-1.08.62.62,0,0,1,.83.1.59.59,0,0,1-.12.88,6.36,6.36,0,0,1-3.88,1.31A6.23,6.23,0,0,1,101,29.71Z"/><path class="cls-2" d="M116.29,20.14a.62.62,0,0,1,1.23,0v.58a.62.62,0,1,1-1.23,0Zm0,4a.62.62,0,0,1,1.23,0V35.31a.62.62,0,0,1-1.23,0Z"/><line class="cls-3" x1="13.04" y1="50.6" x2="13.04" y2="13.01"/><polyline class="cls-3" points="8.67 18.26 13.05 22.64 17.43 18.27"/><polyline class="cls-3" points="5.62 25.69 13.06 33.13 20.48 25.71"/><path class="cls-4" d="M13,41.73S-14,40.11,13,3.4C13,3.4,41.89,37.49,13,41.73Z"/></g></svg>