<svg xmlns="http://www.w3.org/2000/svg" viewBox="0 0 160 70"><defs><style>.cls-1{fill:#fff;}.cls-2{fill:#3b2401;}.cls-3,.cls-4{fill:none;stroke:#fff;stroke-miterlimit:10;stroke-width:1.19px;}.cls-3{stroke-linecap:round;}</style></defs><g id="Capa_82" data-name="Capa 82"><path class="cls-1" d="M45.84,24.47a.83.83,0,0,1,.83-.82H59a.84.84,0,0,1,0,1.67H47.52V34.8h10a.85.85,0,0,1,.82.86.84.84,0,0,1-.82.82h-10v9.45H59a.84.84,0,0,1,0,1.67H46.6a.82.82,0,0,1-.76-.82Z"/><path class="cls-1" d="M64.22,39.18a8.45,8.45,0,0,1,8.62-8.35,8.64,8.64,0,0,1,5.34,1.85.78.78,0,0,1,.11,1.13.85.85,0,0,1-1.13.14,6.84,6.84,0,1,0-4.32,12,7.11,7.11,0,0,0,4.32-1.47.85.85,0,0,1,1.13.14.82.82,0,0,1-.18,1.2,8.66,8.66,0,0,1-5.27,1.77A8.45,8.45,0,0,1,64.22,39.18Z"/><path class="cls-1" d="M91.6,30.83a8.4,8.4,0,1,1-7.94,8.39A8.21,8.21,0,0,1,91.6,30.83ZM91.6,46a6.78,6.78,0,1,0-6.3-6.74A6.56,6.56,0,0,0,91.6,46Z"/><path class="cls-2" d="M105.83,39.6V24.47a.83.83,0,0,1,.82-.82.84.84,0,0,1,.86.82v9.65a8,8,0,0,1,6.43-3.29,8.39,8.39,0,0,1,0,16.77,8,8,0,0,1-6.43-3.25v2.43a.84.84,0,0,1-.86.82.83.83,0,0,1-.82-.82Zm1.68-.35a6.61,6.61,0,1,0,0-.27Z"/><path class="cls-2" d="M128.45,26.18a.82.82,0,0,1,.82-.82.84.84,0,0,1,.86.82V27a.88.88,0,0,1-.86.89.87.87,0,0,1-.82-.89Zm0,5.48a.81.81,0,0,1,.82-.83.83.83,0,0,1,.86.83V46.78a.84.84,0,0,1-.86.82.82.82,0,0,1-.82-.82Z"/><path class="cls-2" d="M136.83,39.18a8.45,8.45,0,0,1,8.63-8.35,8.64,8.64,0,0,1,5.33,1.85.77.77,0,0,1,.11,1.13.85.85,0,0,1-1.13.14,6.84,6.84,0,1,0-4.31,12,7.1,7.1,0,0,0,4.31-1.47.85.85,0,0,1,1.13.14.81.81,0,0,1-.17,1.2,8.7,8.7,0,0,1-5.27,1.77A8.46,8.46,0,0,1,136.83,39.18Z"/><path class="cls-2" d="M157.6,26.18a.83.83,0,0,1,.82-.82.84.84,0,0,1,.86.82V27a.84.84,0,1,1-1.68,0Zm0,5.48a.82.82,0,0,1,.82-.83.83.83,0,0,1,.86.83V46.78a.84.84,0,0,1-.86.82.83.83,0,0,1-.82-.82Z"/><line class="cls-3" x1="17.36" y1="67.56" x2="17.36" y2="16.5"/><polyline class="cls-3" points="11.42 23.63 17.37 29.58 23.31 23.64"/><polyline class="cls-3" points="7.27 33.72 17.38 43.83 27.46 33.74"/><path class="cls-4" d="M17.36,55.51s-36.81-2.2,0-52.07C17.36,3.44,56.54,49.75,17.36,55.51Z"/></g></svg>